<?xml version="1.0" encoding="utf-8"?>
<svg xmlns="http://www.w3.org/2000/svg" xmlns:svg="http://www.w3.org/2000/svg" version="1.1" viewBox="0 0 1400 340">
	<title>The titlepage for the Standard Ebooks edition of Dawn, by Harriet A. Adams</title>
	<g aria-label="DAWN">
		<path d="M 539.8538,52.807016 V 130 h 22.36257 c 21.23977,0 38.92398,-16.09357 38.92398,-38.643276 0,-22.45614 -17.77778,-38.549708 -38.92398,-38.549708 z M 557.44444,114.2807 V 68.526315 h 2.71345 c 13.09942,0 21.98831,10.011696 21.98831,22.923977 -0.0936,12.912278 -8.98246,22.830408 -21.98831,22.830408 z"/>
		<path d="M 653.13743,52.807016 H 636.85672 L 605.69883,130 h 18.90058 l 5.70761,-15.4386 h 29.38011 L 665.39474,130 h 18.90058 z m 0.5614,46.31579 h -17.40351 l 8.60819,-22.45614 h 0.18713 z"/>
		<path d="m 743.40204,130 h 19.46199 l 21.98831,-77.192984 h -19.46199 l -13.19298,52.959064 h -0.46784 L 737.69444,52.807016 H 724.40789 L 710.3728,105.76608 h -0.46783 L 696.71199,52.807016 H 677.15643 L 699.14473,130 h 19.55556 l 12.35088,-43.321638 z"/>
		<path d="m 811.66228,82.093566 h 0.18713 L 842.53947,130 h 17.59064 V 52.807016 h -17.59064 v 47.906434 h -0.18713 L 811.66228,52.807016 H 794.07163 V 130 h 17.59065 z"/>
	</g>
	<g aria-label="HARRIET A. ADAMS">
		<path d="m 327.45011,266.77193 h 18.66667 V 290 h 13.19298 v -57.89474 h -13.19298 v 23.08772 H 327.45011 V 232.10526 H 314.25713 V 290 h 13.19298 z"/>
		<path d="M 402.11458,232.10526 H 389.90406 L 366.53564,290 h 14.17544 l 4.2807,-11.57895 h 22.03508 L 411.30757,290 H 425.483 Z m 0.42106,34.73685 H 389.48301 L 395.93915,250 h 0.14035 z"/>
		<path d="M 432.6727,232.10526 V 290 h 13.19299 V 267.12281 L 463.5499,290 h 16.77193 L 460.392,266.07018 c 7.08772,-2.24562 11.85965,-8.07018 11.85965,-16.77193 0,-11.36842 -8.14035,-17.19299 -18.87719,-17.19299 z m 13.19299,25.68421 v -15.15789 h 1.54386 c 4.98245,0 10.94736,0.35088 10.94736,7.57895 0,7.22807 -5.96491,7.57894 -10.94736,7.57894 z"/>
		<path d="M 487.97423,232.10526 V 290 h 13.19298 V 267.12281 L 518.85143,290 h 16.77192 l -19.92982,-23.92982 c 7.08772,-2.24562 11.85965,-8.07018 11.85965,-16.77193 0,-11.36842 -8.14035,-17.19299 -18.87719,-17.19299 z m 13.19298,25.68421 v -15.15789 h 1.54386 c 4.98246,0 10.94737,0.35088 10.94737,7.57895 0,7.22807 -5.96491,7.57894 -10.94737,7.57894 z"/>
		<path d="M 556.46874,232.10526 H 543.27576 V 290 h 13.19298 z"/>
		<path d="M 603.05427,232.10526 H 569.93146 V 290 h 33.12281 v -11.57895 h -19.92983 v -11.64912 h 19.08772 v -11.57895 h -19.08772 v -11.50877 h 19.92983 z"/>
		<path d="m 611.98957,243.68421 h 13.75438 V 290 h 13.19299 v -46.31579 h 13.75438 v -11.57895 h -40.70175 z"/>
		<path d="M 716.03454,232.10526 H 703.82401 L 680.45559,290 h 14.17544 l 4.2807,-11.57895 h 22.03509 L 725.22752,290 h 14.17544 z m 0.42105,34.73685 H 703.40296 L 709.8591,250 h 0.14035 z"/>
		<path d="m 754.59264,274.98246 c -4.42105,0 -8,3.57894 -8,8.07017 0,4.42105 3.57895,8 8,8 4.49123,0 8.07018,-3.57895 8.07018,-8 0,-4.49123 -3.57895,-8.07017 -8.07018,-8.07017 z"/>
		<path d="M 829.71874,232.10526 H 817.50822 L 794.1398,290 h 14.17544 l 4.2807,-11.57895 h 22.03509 L 838.91173,290 h 14.17544 z m 0.42106,34.73685 H 817.08717 L 823.54331,250 h 0.14035 z"/>
		<path d="M 860.27684,232.10526 V 290 h 16.77193 c 15.92983,0 29.19299,-12.07018 29.19299,-28.98246 0,-16.8421 -13.33334,-28.91228 -29.19299,-28.91228 z m 13.19299,46.10527 v -34.31579 h 2.03508 c 9.82457,0 16.49123,7.50877 16.49123,17.19298 -0.0702,9.68421 -6.73684,17.12281 -16.49123,17.12281 z"/>
		<path d="M 946.48956,232.10526 H 934.27903 L 910.91061,290 h 14.17544 l 4.2807,-11.57895 h 22.03509 L 955.68254,290 h 14.17544 z m 0.42105,34.73685 H 933.85798 L 940.31412,250 h 0.14035 z"/>
		<path d="m 1024.9074,290 h 13.1929 l -5.1929,-57.89474 h -14.0351 l -12.8421,33.40351 -12.84213,-33.40351 H 979.15298 L 973.96,290 h 13.19298 l 2.73684,-34.31579 h 0.35088 l 11.8597,33.96491 h 7.8596 l 11.8596,-33.96491 h 0.3509 z"/>
		<path d="m 1068.3482,231.05263 c -9.3334,0 -18.8772,6.8772 -18.8772,17.68421 0,6.03509 4.0701,11.4386 11.0175,14.8772 6.8772,3.43859 13.0526,5.33333 13.0526,9.54385 0,5.40351 -5.4736,5.68422 -8.3508,5.68422 -6.4562,0 -14.1755,-6.52632 -14.1755,-6.52632 l -6.5965,11.08772 c 0,0 8.2106,7.64912 21.7544,7.64912 11.2983,0 21.8246,-4.8421 21.8246,-18.66666 0,-7.57895 -7.0877,-13.05264 -13.5439,-15.78948 -6.5965,-2.80702 -12.0702,-5.12281 -12.0702,-8.35088 0,-3.15789 2.386,-5.19298 6.8772,-5.19298 5.9649,0 11.7193,4 11.7193,4 l 5.3334,-10.52631 c 0,0 -7.4386,-5.47369 -17.9649,-5.47369 z"/>
	</g>
</svg>
